<?xml version="1.0" encoding="UTF-8"?>
<svg xmlns="http://www.w3.org/2000/svg" xmlns:xlink="http://www.w3.org/1999/xlink" viewBox="0 0 1500 1000">
  <defs>
    <style>
      .cls-1 {
        opacity: .3;
      }

      .cls-1, .cls-2 {
        fill: none;
      }

      .cls-2 {
        isolation: isolate;
      }

      .cls-3 {
        fill: url(#Gold);
      }

      .cls-4 {
        fill: #67e7f8;
      }

      .cls-5 {
        fill: #fff;
      }

      .cls-6 {
        fill: #e5e5e5;
      }

      .cls-7 {
        fill: #b2b2b2;
      }

      .cls-8 {
        fill: #06b5d3;
      }

      .cls-9 {
        fill: #e8b08b;
      }

      .cls-9, .cls-10, .cls-11 {
        mix-blend-mode: multiply;
      }

      .cls-10 {
        fill: url(#Gold-4);
      }

      .cls-11 {
        fill: url(#Gold-2);
      }

      .cls-12 {
        fill: url(#Gold-5);
      }

      .cls-13 {
        fill: url(#Gold-3);
      }
    </style>
    <linearGradient id="Gold" x1="734.07" y1="409.14" x2="765.12" y2="409.14" gradientUnits="userSpaceOnUse">
      <stop offset="0" stop-color="#fac826"/>
      <stop offset=".25" stop-color="#fffacb"/>
      <stop offset=".3" stop-color="#f8eeb9"/>
      <stop offset=".41" stop-color="#e6d08c"/>
      <stop offset=".55" stop-color="#cba045"/>
      <stop offset=".6" stop-color="#c2912e"/>
      <stop offset=".87" stop-color="#edd587"/>
      <stop offset="1" stop-color="#fffacb"/>
    </linearGradient>
    <linearGradient id="Gold-2" data-name="Gold" y1="400.37" y2="400.37" xlink:href="#Gold"/>
    <linearGradient id="Gold-3" data-name="Gold" x1="734.07" y1="389.72" x2="765.12" y2="389.72" xlink:href="#Gold"/>
    <linearGradient id="Gold-4" data-name="Gold" y1="421.71" y2="421.71" xlink:href="#Gold"/>
    <linearGradient id="Gold-5" data-name="Gold" x1="734.07" y1="431.37" x2="765.12" y2="431.37" xlink:href="#Gold"/>
  </defs>
  <g class="cls-2">
    <g id="Layer_1" data-name="Layer 1">
      <g>
        <g>
          <g>
            <path d="m614.6,600.82c0,1.56.78,2.34,2.34,2.34h11.68v7.01h-11.68c-6.23,0-9.35-3.11-9.35-9.35v-14.02c0-6.23,3.12-9.35,9.35-9.35h11.68v7.01h-11.68c-1.56,0-2.34.78-2.34,2.34v14.02Z"/>
            <path d="m641.26,603.16h14.02v7.01h-21.03v-32.71h7.01v25.7Z"/>
            <path d="m690.25,610.17h-7.01l-2.17-7.01h-12.01l-2.17,7.01h-7.01l9.81-32.71h10.75l9.81,32.71Zm-19.07-14.02h7.76l-3.88-11.68-3.88,11.68Z"/>
            <path d="m702.12,577.46l11.68,19.86v-19.86h7.01v32.71h-7.01l-11.68-19.86v19.86h-7.01v-32.71h7.01Z"/>
            <path d="m756.44,610.17h-7.01l-2.17-7.01h-12.01l-2.17,7.01h-7.01l9.81-32.71h10.75l9.81,32.71Zm-19.07-14.02h7.76l-3.88-11.68-3.88,11.68Z"/>
            <path d="m779.06,577.46v7.01h-8.18v25.7h-7.01v-25.7h-8.18v-7.01h23.37Z"/>
            <path d="m808.06,577.46v7.01h-8.18v25.7h-7.01v-25.7h-8.18v-7.01h23.37Z"/>
            <path d="m838.44,610.17h-7.01l-2.17-7.01h-12.01l-2.17,7.01h-7.01l9.81-32.71h10.75l9.81,32.71Zm-19.07-14.02h7.76l-3.88-11.68-3.88,11.68Z"/>
            <path d="m849.13,600.82c0,1.56.78,2.34,2.34,2.34h11.68v7.01h-11.68c-6.23,0-9.35-3.11-9.35-9.35v-14.02c0-6.23,3.12-9.35,9.35-9.35h11.68v7.01h-11.68c-1.56,0-2.34.78-2.34,2.34v14.02Z"/>
            <path d="m869.05,610.17v-32.71h7.01v15.19l8.88-15.19h7.48l-9.81,16.36,9.81,16.36h-7.48l-8.88-15.19v15.19h-7.01Z"/>
          </g>
          <g>
            <path d="m706.3,627.9h-3.76l-4.55-4.26h-2.49v4.26h-2.58v-11.29h9.67c1.69,0,2.54.73,2.54,2.19v2.65c0,1.09-.44,1.77-1.31,2.03-.33.1-1.24.15-2.71.15l5.2,4.26Zm-3.72-7.09v-1.36c0-.38-.11-.63-.33-.74-.16-.1-.44-.15-.85-.15h-5.91v3.15h5.91c.41,0,.69-.05.85-.15.22-.12.33-.36.33-.74Z"/>
            <path d="m728.5,625.23c0,1.05-.2,1.76-.6,2.12-.4.36-1.13.55-2.2.55h-8.31c-1.06,0-1.8-.18-2.2-.55-.4-.36-.6-1.07-.6-2.12v-5.95c0-1.05.2-1.76.6-2.12.4-.36,1.13-.55,2.2-.55h8.31c1.06,0,1.8.18,2.2.55.4.36.6,1.07.6,2.12v5.95Zm-2.63.55v-7.15h-8.66v7.15h8.66Z"/>
            <path d="m750.5,625.23c0,1.05-.2,1.76-.6,2.12-.4.36-1.13.55-2.2.55h-6.74c-1.06,0-1.8-.18-2.2-.55-.4-.36-.6-1.07-.6-2.12v-5.95c0-1.05.2-1.76.6-2.12.4-.36,1.13-.55,2.2-.55h6.74c1.34,0,2.17.31,2.49.94.2.36.31,1.3.31,2.8l-2.62.42v-2.14h-7.09v7.15h7.09v-2.43l2.62.55v1.33Z"/>
            <path d="m773.93,627.9h-4.22l-6.76-4.97v4.97h-2.65v-11.29h2.65v4.7l6.25-4.7h3.81l-7.48,5.32,8.4,5.97Z"/>
            <path d="m794.29,625.23c0,1.05-.2,1.76-.61,2.12-.41.36-1.14.55-2.21.55h-6.98c-1.15,0-1.91-.2-2.27-.61s-.55-1.2-.55-2.36l2.32-.48v1.33h7.98v-2.58h-7.04c-1.06,0-1.8-.18-2.2-.55-.4-.36-.6-1.07-.6-2.12v-1.25c0-1.05.2-1.76.6-2.12.4-.36,1.13-.55,2.2-.55h6.41c1.08,0,1.82.19,2.21.56.39.37.59,1.09.59,2.15l-2.32.55v-1.29h-7.39v2.43h7.04c1.06,0,1.8.18,2.21.55.41.36.61,1.07.61,2.12v1.55Z"/>
            <path d="m807.09,627.16c0,.34-.05.54-.15.62s-.32.12-.66.12h-2.03c-.36,0-.55-.25-.55-.74v-1.64c0-.33.05-.54.15-.62.1-.08.32-.12.65-.12h2.03c.36,0,.55.25.55.74v1.64Zm0-10.54l-.81,6.69h-1.75l-.81-6.69h3.37Z"/>
          </g>
        </g>
        <g>
          <path d="m748.18,526.66c-10.67-4.72-63.89-30.51-63.89-75.35v-63.61l65.71-11.16,65.71,11.16v63.61c0,44.88-53.22,70.64-63.89,75.35l-1.82.8-1.82-.8Z"/>
          <path class="cls-4" d="m750,522.54c-8.21-3.63-61.21-28.72-61.21-71.23v-59.81l61.21-10.39,61.21,10.39v59.81c0,42.55-52.99,67.6-61.21,71.23Z"/>
          <path class="cls-8" d="m750,510.08c-13.61-6.82-49.95-27.91-49.95-58.76v-50.3l49.94-8.48,49.94,8.48v50.3c0,30.89-36.33,51.95-49.94,58.76Z"/>
          <g>
            <path d="m782.94,423.99c-5.8-2.62-11.95-4.54-18.27-5.72v-17.83l5.35-2.7.11-.05v-25.58h-40.24v25.58l5.44,2.75v17.84c-6.32,1.18-12.46,3.1-18.26,5.72l-2.52,1.14v23.06l6.04-2.73c1.26-.57,2.61-1.12,4.21-1.72v78.54l25.2,35.25,17.33-24.25h0s7.8-10.9,7.8-10.9l.07-.07v-31.15s0,0,0,0v-47.43c1.61.61,2.95,1.16,4.21,1.72l6.04,2.73v-23.06l-2.52-1.14Z"/>
            <g>
              <g>
                <polygon class="cls-6" points="749.99 427.89 749.99 550.17 729.07 520.91 729.07 432.9 749.99 427.89"/>
                <polygon class="cls-7" points="770.92 432.9 770.92 520.91 749.99 550.17 749.99 427.89 770.92 432.9"/>
              </g>
              <rect class="cls-3" x="739.6" y="392.55" width="20.78" height="33.18"/>
              <polygon class="cls-11" points="760.38 393.99 760.38 401.5 749.99 406.75 739.6 401.5 739.6 393.99 760.38 393.99"/>
              <g class="cls-1">
                <path class="cls-5" d="m750,509.83v-30.18c-6.97-6.97-13.95-13.95-20.92-20.92v30.13c6.97,6.99,13.95,13.98,20.92,20.97Z"/>
                <path class="cls-5" d="m750,460.07v-8.92c-6.25-6.26-12.5-12.52-18.75-18.77l-2.17.52v6.25l20.92,20.92Z"/>
                <path class="cls-5" d="m770.92,480.99v-8.87c-6.97-7-13.94-13.99-20.92-20.97v8.92l20.92,20.92Z"/>
                <path class="cls-5" d="m766.8,526.67l4.12-5.76v-20.34l-20.92-20.92v30.18c5.6,5.62,11.2,11.23,16.8,16.84Z"/>
              </g>
              <polygon class="cls-13" points="765.84 395.05 750 403.06 734.16 395.05 734.16 376.38 765.84 376.38 765.84 395.05"/>
              <path class="cls-10" d="m760.38,418.41v7.31h-20.78v-7.31c6.89-.96,13.88-.96,20.78,0Z"/>
              <path class="cls-9" d="m770.92,432.9v9.15c-6.76-2.06-13.76-3.11-20.92-3.11s-14.16,1.05-20.92,3.11v-9.15l20.92-5.01,20.92,5.01Z"/>
              <path class="cls-12" d="m718.83,427.89c19.82-8.95,42.53-8.95,62.35,0v13.67c-19.82-8.95-42.53-8.95-62.35,0v-13.67Z"/>
            </g>
          </g>
        </g>
      </g>
    </g>
  </g>
</svg>