<?xml version="1.0" encoding="UTF-8"?>
<svg xmlns="http://www.w3.org/2000/svg" xmlns:xlink="http://www.w3.org/1999/xlink" viewBox="0 0 1500 1000">
  <defs>
    <style>
      .cls-1 {
        opacity: .3;
      }

      .cls-1, .cls-2 {
        fill: none;
      }

      .cls-2 {
        isolation: isolate;
      }

      .cls-3 {
        fill: url(#Gold);
      }

      .cls-4 {
        fill: #67e7f8;
      }

      .cls-5 {
        fill: #fff;
      }

      .cls-6 {
        fill: #e5e5e5;
      }

      .cls-7 {
        fill: #b2b2b2;
      }

      .cls-8 {
        fill: #06b5d3;
      }

      .cls-9 {
        fill: #e8b08b;
      }

      .cls-9, .cls-10, .cls-11 {
        mix-blend-mode: multiply;
      }

      .cls-10 {
        fill: url(#Gold-4);
      }

      .cls-11 {
        fill: url(#Gold-2);
      }

      .cls-12 {
        fill: url(#Gold-5);
      }

      .cls-13 {
        fill: url(#Gold-3);
      }
    </style>
    <linearGradient id="Gold" x1="707.64" y1="258.43" x2="790.19" y2="258.43" gradientUnits="userSpaceOnUse">
      <stop offset="0" stop-color="#fac826"/>
      <stop offset=".25" stop-color="#fffacb"/>
      <stop offset=".3" stop-color="#f8eeb9"/>
      <stop offset=".41" stop-color="#e6d08c"/>
      <stop offset=".55" stop-color="#cba045"/>
      <stop offset=".6" stop-color="#c2912e"/>
      <stop offset=".87" stop-color="#edd587"/>
      <stop offset="1" stop-color="#fffacb"/>
    </linearGradient>
    <linearGradient id="Gold-2" data-name="Gold" y1="235.12" y2="235.12" xlink:href="#Gold"/>
    <linearGradient id="Gold-3" data-name="Gold" x1="707.64" y1="206.81" x2="790.19" y2="206.81" xlink:href="#Gold"/>
    <linearGradient id="Gold-4" data-name="Gold" y1="291.86" y2="291.86" xlink:href="#Gold"/>
    <linearGradient id="Gold-5" data-name="Gold" x1="707.64" y1="317.55" x2="790.19" y2="317.55" xlink:href="#Gold"/>
  </defs>
  <g class="cls-2">
    <g id="Layer_1" data-name="Layer 1">
      <g>
        <g>
          <g>
            <path d="m390.02,768.05c0,4.14,2.07,6.21,6.21,6.21h31.06v18.64h-31.06c-16.57,0-24.85-8.28-24.85-24.85v-37.28c0-16.57,8.28-24.85,24.85-24.85h31.06v18.64h-31.06c-4.14,0-6.21,2.07-6.21,6.21v37.28Z"/>
            <path d="m460.9,774.26h37.27v18.64h-55.91v-86.97h18.64v68.34Z"/>
            <path d="m591.16,792.9h-18.64l-5.77-18.64h-31.93l-5.77,18.64h-18.64l26.09-86.97h28.58l26.09,86.97Zm-50.7-37.27h20.62l-10.31-31.06-10.31,31.06Z"/>
            <path d="m622.71,705.92l31.06,52.8v-52.8h18.64v86.97h-18.64l-31.06-52.81v52.81h-18.64v-86.97h18.64Z"/>
            <path d="m767.12,792.9h-18.64l-5.78-18.64h-31.93l-5.78,18.64h-18.64l26.09-86.97h28.58l26.09,86.97Zm-50.69-37.27h20.62l-10.31-31.06-10.31,31.06Z"/>
            <path d="m827.27,705.92v18.64h-21.74v68.34h-18.64v-68.34h-21.74v-18.64h62.13Z"/>
            <path d="m904.36,705.92v18.64h-21.74v68.34h-18.64v-68.34h-21.74v-18.64h62.13Z"/>
            <path d="m985.12,792.9h-18.64l-5.78-18.64h-31.93l-5.78,18.64h-18.64l26.09-86.97h28.58l26.09,86.97Zm-50.7-37.27h20.63l-10.31-31.06-10.31,31.06Z"/>
            <path d="m1013.55,768.05c0,4.14,2.08,6.21,6.22,6.21h31.06v18.64h-31.06c-16.57,0-24.85-8.28-24.85-24.85v-37.28c0-16.57,8.29-24.85,24.85-24.85h31.06v18.64h-31.06c-4.14,0-6.22,2.07-6.22,6.21v37.28Z"/>
            <path d="m1066.49,792.9v-86.97h18.64v40.38l23.61-40.38h19.88l-26.09,43.48,26.09,43.49h-19.88l-23.61-40.38v40.38h-18.64Z"/>
          </g>
          <g>
            <path d="m633.81,840.03h-10l-12.1-11.34h-6.63v11.34h-6.86v-30.01h25.7c4.5,0,6.75,1.94,6.75,5.81v7.04c0,2.91-1.16,4.71-3.49,5.41-.89.27-3.29.41-7.21.41l13.84,11.34Zm-9.89-18.84v-3.6c0-1.01-.29-1.67-.87-1.98-.43-.27-1.18-.41-2.27-.41h-15.7v8.37h15.7c1.08,0,1.84-.13,2.27-.41.58-.31.87-.97.87-1.98Z"/>
            <path d="m692.84,832.94c0,2.79-.53,4.67-1.6,5.64-1.06.97-3.01,1.45-5.84,1.45h-22.1c-2.83,0-4.78-.49-5.84-1.45-1.07-.97-1.6-2.85-1.6-5.64v-15.82c0-2.79.53-4.67,1.6-5.64,1.06-.97,3.01-1.45,5.84-1.45h22.1c2.83,0,4.78.49,5.84,1.45,1.06.97,1.6,2.85,1.6,5.64v15.82Zm-6.98,1.45v-19.01h-23.03v19.01h23.03Z"/>
            <path d="m751.34,832.94c0,2.79-.53,4.67-1.6,5.64-1.06.97-3.01,1.45-5.84,1.45h-17.91c-2.83,0-4.78-.49-5.84-1.45-1.07-.97-1.6-2.85-1.6-5.64v-15.82c0-2.79.53-4.67,1.6-5.64,1.06-.97,3.01-1.45,5.84-1.45h17.91c3.57,0,5.78.83,6.63,2.5.54.97.81,3.45.81,7.44l-6.98,1.1v-5.7h-18.84v19.01h18.84v-6.45l6.98,1.46v3.55Z"/>
            <path d="m813.61,840.03h-11.22l-17.97-13.2v13.2h-7.04v-30.01h7.04v12.5l16.63-12.5h10.12l-19.89,14.13,22.33,15.87Z"/>
            <path d="m867.75,832.94c0,2.79-.54,4.67-1.63,5.64-1.08.97-3.04,1.45-5.87,1.45h-18.55c-3.06,0-5.08-.54-6.05-1.63-.97-1.09-1.45-3.18-1.45-6.28l6.17-1.28v3.55h21.22v-6.86h-18.73c-2.83,0-4.78-.49-5.84-1.45-1.06-.97-1.6-2.85-1.6-5.64v-3.31c0-2.79.53-4.67,1.6-5.64,1.06-.97,3.01-1.45,5.84-1.45h17.04c2.87,0,4.83.49,5.88,1.48,1.05.99,1.57,2.9,1.57,5.73l-6.16,1.46v-3.43h-19.66v6.45h18.73c2.83,0,4.79.49,5.87,1.45,1.08.97,1.63,2.85,1.63,5.64v4.13Z"/>
            <path d="m901.77,838.05c0,.89-.14,1.45-.41,1.66-.27.21-.85.32-1.74.32h-5.41c-.97,0-1.45-.66-1.45-1.98v-4.36c0-.89.13-1.44.41-1.66.27-.21.85-.32,1.74-.32h5.41c.97,0,1.45.66,1.45,1.98v4.36Zm0-28.03l-2.15,17.79h-4.66l-2.15-17.79h8.95Z"/>
          </g>
        </g>
        <g>
          <path d="m745.16,570.88c-28.36-12.54-169.86-81.12-169.86-200.31v-169.13l174.7-29.66,174.7,29.66v169.13c0,119.31-141.5,187.8-169.86,200.32l-4.84,2.13-4.84-2.14Z"/>
          <path class="cls-4" d="m750,559.92c-21.84-9.65-162.72-76.37-162.72-189.36v-159.01l162.72-27.63,162.72,27.63v159.01c0,113.12-140.89,179.72-162.72,189.36Z"/>
          <path class="cls-8" d="m750.01,526.79c-36.19-18.13-132.79-74.2-132.79-156.23v-133.72l132.77-22.54,132.78,22.55v133.72c0,82.11-96.58,138.13-132.77,156.23Z"/>
          <g>
            <path d="m837.56,297.92c-15.43-6.96-31.76-12.08-48.57-15.21v-47.4l14.21-7.19.28-.14v-68.02h-106.98v68.02l14.46,7.31v47.42c-16.8,3.13-33.12,8.24-48.53,15.2l-6.7,3.02v61.32l16.06-7.25c3.36-1.51,6.93-2.98,11.19-4.58v208.82l67.01,93.71,46.07-64.47h0s20.73-28.98,20.73-28.98l.2-.18v-82.81s0,0,0,0v-126.1c4.28,1.61,7.85,3.08,11.19,4.58l16.07,7.25v-61.32l-6.7-3.02Z"/>
            <g>
              <g>
                <polygon class="cls-6" points="749.99 308.29 749.99 633.39 694.37 555.58 694.37 321.61 749.99 308.29"/>
                <polygon class="cls-7" points="805.61 321.61 805.61 555.58 749.99 633.39 749.99 308.29 805.61 321.61"/>
              </g>
              <rect class="cls-3" x="722.36" y="214.33" width="55.25" height="88.21"/>
              <polygon class="cls-11" points="777.61 218.15 777.61 238.13 749.99 252.09 722.36 238.13 722.36 218.15 777.61 218.15"/>
              <g class="cls-1">
                <path class="cls-5" d="m750,526.12v-80.23c-18.54-18.54-37.08-37.08-55.62-55.62v80.1c18.54,18.58,37.08,37.16,55.62,55.75Z"/>
                <path class="cls-5" d="m750,393.83v-23.71c-16.63-16.63-33.24-33.28-49.86-49.91l-5.76,1.38v16.62l55.62,55.62Z"/>
                <path class="cls-5" d="m805.62,449.45v-23.57c-18.52-18.6-37.06-37.19-55.62-55.75v23.71l55.62,55.62Z"/>
                <path class="cls-5" d="m794.67,570.9l10.95-15.31v-54.08l-55.62-55.62v80.23c14.89,14.93,29.78,29.86,44.67,44.78Z"/>
              </g>
              <polygon class="cls-13" points="792.1 220.99 750 242.28 707.9 220.99 707.9 171.35 792.1 171.35 792.1 220.99"/>
              <path class="cls-10" d="m777.61,283.1v19.44h-55.25v-19.44c18.31-2.55,36.9-2.55,55.25,0Z"/>
              <path class="cls-9" d="m805.61,321.61v24.33c-17.97-5.47-36.59-8.26-55.62-8.26s-37.65,2.79-55.62,8.26v-24.33l55.62-13.32,55.62,13.32Z"/>
              <path class="cls-12" d="m667.12,308.3c52.69-23.79,113.06-23.79,165.75,0v36.34c-52.69-23.79-113.06-23.79-165.75,0v-36.34Z"/>
            </g>
          </g>
        </g>
      </g>
    </g>
  </g>
</svg>