<?xml version="1.0" encoding="UTF-8"?>
<svg xmlns="http://www.w3.org/2000/svg" xmlns:xlink="http://www.w3.org/1999/xlink" viewBox="0 0 1500 1000">
  <defs>
    <style>
      .cls-1 {
        opacity: .3;
      }

      .cls-1, .cls-2 {
        fill: none;
      }

      .cls-2 {
        isolation: isolate;
      }

      .cls-3 {
        fill: url(#Gold);
      }

      .cls-4 {
        fill: #67e7f8;
      }

      .cls-5 {
        fill: #fff;
      }

      .cls-6 {
        fill: #e5e5e5;
      }

      .cls-7 {
        fill: #b2b2b2;
      }

      .cls-8 {
        fill: #06b5d3;
      }

      .cls-9 {
        fill: #e8b08b;
      }

      .cls-9, .cls-10, .cls-11 {
        mix-blend-mode: multiply;
      }

      .cls-10 {
        fill: url(#Gold-4);
      }

      .cls-11 {
        fill: url(#Gold-2);
      }

      .cls-12 {
        fill: url(#Gold-5);
      }

      .cls-13 {
        fill: url(#Gold-3);
      }
    </style>
    <linearGradient id="Gold" x1="727.9" y1="373.94" x2="770.98" y2="373.94" gradientUnits="userSpaceOnUse">
      <stop offset="0" stop-color="#fac826"/>
      <stop offset=".25" stop-color="#fffacb"/>
      <stop offset=".3" stop-color="#f8eeb9"/>
      <stop offset=".41" stop-color="#e6d08c"/>
      <stop offset=".55" stop-color="#cba045"/>
      <stop offset=".6" stop-color="#c2912e"/>
      <stop offset=".87" stop-color="#edd587"/>
      <stop offset="1" stop-color="#fffacb"/>
    </linearGradient>
    <linearGradient id="Gold-2" data-name="Gold" y1="361.77" y2="361.77" xlink:href="#Gold"/>
    <linearGradient id="Gold-3" data-name="Gold" x1="727.89" y1="347" x2="770.98" y2="347" xlink:href="#Gold"/>
    <linearGradient id="Gold-4" data-name="Gold" y1="391.38" y2="391.38" xlink:href="#Gold"/>
    <linearGradient id="Gold-5" data-name="Gold" x1="727.89" y1="404.78" x2="770.98" y2="404.78" xlink:href="#Gold"/>
  </defs>
  <g class="cls-2">
    <g id="Layer_1" data-name="Layer 1">
      <g>
        <g>
          <g>
            <path class="cls-5" d="m562.14,639.88c0,2.16,1.08,3.24,3.24,3.24h16.21v9.73h-16.21c-8.65,0-12.97-4.32-12.97-12.97v-19.45c0-8.65,4.32-12.97,12.97-12.97h16.21v9.73h-16.21c-2.16,0-3.24,1.08-3.24,3.24v19.45Z"/>
            <path class="cls-5" d="m599.13,643.12h19.45v9.73h-29.18v-45.39h9.73v35.66Z"/>
            <path class="cls-5" d="m667.11,652.85h-9.73l-3.01-9.73h-16.67l-3.01,9.73h-9.73l13.62-45.39h14.91l13.62,45.39Zm-26.46-19.45h10.76l-5.38-16.21-5.38,16.21Z"/>
            <path class="cls-5" d="m683.57,607.46l16.21,27.56v-27.56h9.73v45.39h-9.73l-16.21-27.56v27.56h-9.73v-45.39h9.73Z"/>
            <path class="cls-5" d="m758.94,652.85h-9.73l-3.02-9.73h-16.66l-3.02,9.73h-9.73l13.62-45.39h14.91l13.62,45.39Zm-26.45-19.45h10.76l-5.38-16.21-5.38,16.21Z"/>
            <path class="cls-5" d="m790.32,607.46v9.73h-11.35v35.66h-9.73v-35.66h-11.35v-9.73h32.42Z"/>
            <path class="cls-5" d="m830.55,607.46v9.73h-11.35v35.66h-9.73v-35.66h-11.35v-9.73h32.42Z"/>
            <path class="cls-5" d="m872.7,652.85h-9.73l-3.02-9.73h-16.66l-3.02,9.73h-9.73l13.62-45.39h14.91l13.62,45.39Zm-26.46-19.45h10.77l-5.38-16.21-5.38,16.21Z"/>
            <path class="cls-5" d="m887.54,639.88c0,2.16,1.08,3.24,3.24,3.24h16.21v9.73h-16.21c-8.65,0-12.97-4.32-12.97-12.97v-19.45c0-8.65,4.32-12.97,12.97-12.97h16.21v9.73h-16.21c-2.16,0-3.24,1.08-3.24,3.24v19.45Z"/>
            <path class="cls-5" d="m915.17,652.85v-45.39h9.73v21.07l12.32-21.07h10.37l-13.62,22.69,13.62,22.7h-10.37l-12.32-21.07v21.07h-9.73Z"/>
          </g>
          <g>
            <path class="cls-5" d="m689.37,677.45h-5.22l-6.31-5.92h-3.46v5.92h-3.58v-15.66h13.41c2.35,0,3.52,1.01,3.52,3.03v3.67c0,1.52-.61,2.46-1.82,2.82-.46.14-1.72.21-3.76.21l7.22,5.92Zm-5.16-9.83v-1.88c0-.53-.15-.87-.45-1.03-.22-.14-.62-.21-1.18-.21h-8.19v4.37h8.19c.57,0,.96-.07,1.18-.21.3-.16.45-.51.45-1.03Z"/>
            <path class="cls-5" d="m720.17,673.75c0,1.46-.28,2.44-.83,2.94-.56.51-1.57.76-3.05.76h-11.53c-1.48,0-2.49-.25-3.05-.76-.56-.51-.83-1.49-.83-2.94v-8.25c0-1.46.28-2.44.83-2.94.56-.51,1.57-.76,3.05-.76h11.53c1.48,0,2.49.25,3.05.76.56.51.83,1.49.83,2.94v8.25Zm-3.64.76v-9.92h-12.02v9.92h12.02Z"/>
            <path class="cls-5" d="m750.7,673.75c0,1.46-.28,2.44-.83,2.94-.56.51-1.57.76-3.05.76h-9.34c-1.48,0-2.49-.25-3.05-.76-.56-.51-.83-1.49-.83-2.94v-8.25c0-1.46.28-2.44.83-2.94.56-.51,1.57-.76,3.05-.76h9.34c1.86,0,3.02.43,3.46,1.31.28.5.42,1.8.42,3.88l-3.64.58v-2.97h-9.83v9.92h9.83v-3.37l3.64.76v1.85Z"/>
            <path class="cls-5" d="m783.2,677.45h-5.86l-9.38-6.89v6.89h-3.67v-15.66h3.67v6.52l8.68-6.52h5.28l-10.38,7.37,11.65,8.28Z"/>
            <path class="cls-5" d="m811.45,673.75c0,1.46-.28,2.44-.85,2.94-.57.51-1.59.76-3.06.76h-9.68c-1.6,0-2.65-.28-3.16-.85-.51-.57-.76-1.66-.76-3.28l3.22-.67v1.85h11.08v-3.58h-9.77c-1.48,0-2.49-.25-3.05-.76-.56-.51-.83-1.49-.83-2.94v-1.73c0-1.46.28-2.44.83-2.94.56-.51,1.57-.76,3.05-.76h8.89c1.5,0,2.52.26,3.07.77.55.52.82,1.51.82,2.99l-3.22.76v-1.79h-10.26v3.37h9.77c1.48,0,2.5.25,3.06.76.57.51.85,1.49.85,2.94v2.15Z"/>
            <path class="cls-5" d="m829.2,676.42c0,.47-.07.75-.21.87-.14.11-.44.17-.91.17h-2.82c-.51,0-.76-.34-.76-1.03v-2.28c0-.46.07-.75.21-.86.14-.11.44-.17.91-.17h2.82c.51,0,.76.34.76,1.03v2.28Zm0-14.63l-1.12,9.29h-2.43l-1.12-9.29h4.67Z"/>
          </g>
        </g>
        <g>
          <path d="m747.47,536.99c-14.8-6.54-88.64-42.33-88.64-104.54v-88.26l91.17-15.48,91.17,15.48v88.26c0,62.26-73.84,98-88.64,104.54l-2.53,1.11-2.53-1.12Z"/>
          <path class="cls-4" d="m750,531.27c-11.4-5.04-84.92-39.85-84.92-98.82v-82.98l84.92-14.42,84.92,14.42v82.98c0,59.03-73.52,93.79-84.92,98.82Z"/>
          <path class="cls-8" d="m750,513.98c-18.88-9.46-69.3-38.72-69.3-81.53v-69.78l69.29-11.76,69.29,11.77v69.78c0,42.85-50.4,72.08-69.29,81.53Z"/>
          <g>
            <path d="m795.7,394.54c-8.05-3.63-16.58-6.3-25.35-7.94v-24.74l7.42-3.75.15-.07v-35.5h-55.83v35.5l7.55,3.82v24.75c-8.77,1.63-17.29,4.3-25.33,7.93l-3.5,1.58v32l8.38-3.79c1.75-.79,3.62-1.55,5.84-2.39v108.97l34.97,48.9,24.04-33.64h0s10.82-15.12,10.82-15.12l.1-.09v-43.22s0,0,0,0v-65.81c2.23.84,4.1,1.61,5.84,2.39l8.39,3.79v-32l-3.5-1.58Z"/>
            <g>
              <g>
                <polygon class="cls-6" points="749.99 399.95 749.99 569.61 720.97 529 720.97 406.9 749.99 399.95"/>
                <polygon class="cls-7" points="779.02 406.9 779.02 529 749.99 569.61 749.99 399.95 779.02 406.9"/>
              </g>
              <rect class="cls-3" x="735.58" y="350.92" width="28.83" height="46.03"/>
              <polygon class="cls-11" points="764.41 352.91 764.41 363.34 749.99 370.63 735.58 363.34 735.58 352.91 764.41 352.91"/>
              <g class="cls-1">
                <path class="cls-5" d="m750,513.63v-41.87c-9.68-9.68-19.35-19.35-29.03-29.03v41.8c9.68,9.7,19.35,19.39,29.03,29.09Z"/>
                <path class="cls-5" d="m750,444.6v-12.37c-8.68-8.68-17.35-17.37-26.02-26.05l-3.01.72v8.67l29.03,29.03Z"/>
                <path class="cls-5" d="m779.03,473.62v-12.3c-9.67-9.71-19.34-19.41-29.03-29.1v12.37l29.03,29.03Z"/>
                <path class="cls-5" d="m773.31,537l5.71-7.99v-28.22l-29.03-29.03v41.87c7.77,7.79,15.54,15.58,23.31,23.37Z"/>
              </g>
              <polygon class="cls-13" points="771.97 354.4 750 365.5 728.03 354.4 728.03 328.49 771.97 328.49 771.97 354.4"/>
              <path class="cls-10" d="m764.41,386.81v10.14h-28.83v-10.14c9.56-1.33,19.26-1.33,28.83,0Z"/>
              <path class="cls-9" d="m779.02,406.9v12.7c-9.38-2.85-19.1-4.31-29.03-4.31s-19.65,1.45-29.03,4.31v-12.7l29.03-6.95,29.03,6.95Z"/>
              <path class="cls-12" d="m706.75,399.96c27.5-12.42,59-12.42,86.5,0v18.97c-27.5-12.42-59-12.42-86.5,0v-18.97Z"/>
            </g>
          </g>
        </g>
      </g>
    </g>
  </g>
</svg>