<?xml version="1.0" encoding="UTF-8"?>
<svg xmlns="http://www.w3.org/2000/svg" xmlns:xlink="http://www.w3.org/1999/xlink" viewBox="0 0 1083.43 966.57">
  <defs>
    <style>
      .cls-1 {
        opacity: .3;
      }

      .cls-1, .cls-2 {
        fill: none;
      }

      .cls-2 {
        isolation: isolate;
      }

      .cls-3 {
        fill: url(#Gold);
      }

      .cls-4 {
        fill: #67e7f8;
      }

      .cls-5 {
        fill: #fff;
      }

      .cls-6 {
        fill: #e5e5e5;
      }

      .cls-7 {
        fill: #b2b2b2;
      }

      .cls-8 {
        fill: #06b5d3;
      }

      .cls-9 {
        fill: #e8b08b;
      }

      .cls-9, .cls-10, .cls-11 {
        mix-blend-mode: multiply;
      }

      .cls-10 {
        fill: url(#Gold-4);
      }

      .cls-11 {
        fill: url(#Gold-2);
      }

      .cls-12 {
        fill: url(#Gold-5);
      }

      .cls-13 {
        fill: url(#Gold-3);
      }
    </style>
    <linearGradient id="Gold" x1="482.57" y1="142.16" x2="597.83" y2="142.16" gradientUnits="userSpaceOnUse">
      <stop offset="0" stop-color="#fac826"/>
      <stop offset=".25" stop-color="#fffacb"/>
      <stop offset=".3" stop-color="#f8eeb9"/>
      <stop offset=".41" stop-color="#e6d08c"/>
      <stop offset=".55" stop-color="#cba045"/>
      <stop offset=".6" stop-color="#c2912e"/>
      <stop offset=".87" stop-color="#edd587"/>
      <stop offset="1" stop-color="#fffacb"/>
    </linearGradient>
    <linearGradient id="Gold-2" data-name="Gold" y1="109.61" y2="109.61" xlink:href="#Gold"/>
    <linearGradient id="Gold-3" data-name="Gold" x1="482.57" y1="70.09" x2="597.83" y2="70.09" xlink:href="#Gold"/>
    <linearGradient id="Gold-4" data-name="Gold" y1="188.83" y2="188.83" xlink:href="#Gold"/>
    <linearGradient id="Gold-5" data-name="Gold" x1="482.57" y1="224.69" x2="597.83" y2="224.69" xlink:href="#Gold"/>
  </defs>
  <g class="cls-2">
    <g id="Layer_1" data-name="Layer 1">
      <g>
        <g>
          <g>
            <path d="m39.11,853.67c0,5.78,2.89,8.67,8.67,8.67h43.37v26.02h-43.37c-23.13,0-34.69-11.56-34.69-34.69v-52.05c0-23.13,11.56-34.69,34.69-34.69h43.37v26.02h-43.37c-5.78,0-8.67,2.89-8.67,8.67v52.05Z"/>
            <path d="m138.08,862.34h52.04v26.02h-78.06v-121.43h26.02v95.41Z"/>
            <path d="m319.94,888.36h-26.03l-8.06-26.02h-44.59l-8.06,26.02h-26.02l36.43-121.43h39.9l36.43,121.43Zm-70.78-52.04h28.79l-14.39-43.37-14.4,43.37Z"/>
            <path d="m364,766.93l43.37,73.72v-73.72h26.02v121.43h-26.02l-43.37-73.73v73.73h-26.02v-121.43h26.02Z"/>
            <path d="m565.62,888.36h-26.02l-8.07-26.02h-44.58l-8.07,26.02h-26.02l36.43-121.43h39.9l36.43,121.43Zm-70.77-52.04h28.79l-14.4-43.37-14.39,43.37Z"/>
            <path d="m649.59,766.93v26.02h-30.36v95.41h-26.02v-95.41h-30.36v-26.02h86.74Z"/>
            <path d="m757.23,766.93v26.02h-30.36v95.41h-26.02v-95.41h-30.36v-26.02h86.74Z"/>
            <path d="m869.99,888.36h-26.02l-8.07-26.02h-44.58l-8.07,26.02h-26.02l36.43-121.43h39.9l36.43,121.43Zm-70.78-52.04h28.8l-14.4-43.37-14.4,43.37Z"/>
            <path d="m909.68,853.67c0,5.78,2.9,8.67,8.68,8.67h43.37v26.02h-43.37c-23.13,0-34.7-11.56-34.7-34.69v-52.05c0-23.13,11.57-34.69,34.7-34.69h43.37v26.02h-43.37c-5.78,0-8.68,2.89-8.68,8.67v52.05Z"/>
            <path d="m983.6,888.36v-121.43h26.02v56.38l32.97-56.38h27.75l-36.43,60.71,36.43,60.72h-27.75l-32.97-56.38v56.38h-26.02Z"/>
          </g>
          <g>
            <path d="m379.5,954.17h-13.96l-16.89-15.83h-9.26v15.83h-9.58v-41.89h35.88c6.28,0,9.42,2.71,9.42,8.12v9.82c0,4.06-1.63,6.58-4.88,7.55-1.24.38-4.6.57-10.06.57l19.32,15.83Zm-13.8-26.31v-5.03c0-1.41-.4-2.33-1.22-2.76-.59-.38-1.65-.57-3.16-.57h-21.92v11.69h21.92c1.51,0,2.57-.19,3.16-.57.81-.43,1.22-1.35,1.22-2.76Z"/>
            <path d="m461.9,944.27c0,3.89-.75,6.52-2.23,7.88-1.49,1.35-4.21,2.03-8.16,2.03h-30.85c-3.95,0-6.67-.68-8.16-2.03-1.49-1.35-2.23-3.98-2.23-7.88v-22.08c0-3.9.74-6.52,2.23-7.88,1.49-1.35,4.21-2.03,8.16-2.03h30.85c3.95,0,6.67.68,8.16,2.03,1.49,1.35,2.23,3.98,2.23,7.88v22.08Zm-9.75,2.03v-26.55h-32.15v26.55h32.15Z"/>
            <path d="m543.58,944.27c0,3.89-.74,6.52-2.23,7.88-1.49,1.35-4.21,2.03-8.16,2.03h-25c-3.95,0-6.67-.68-8.16-2.03-1.49-1.35-2.23-3.98-2.23-7.88v-22.08c0-3.9.74-6.52,2.23-7.88,1.49-1.35,4.21-2.03,8.16-2.03h25c4.98,0,8.07,1.16,9.26,3.49.76,1.35,1.14,4.82,1.14,10.39l-9.74,1.54v-7.96h-26.31v26.55h26.31v-9.01l9.74,2.03v4.95Z"/>
            <path d="m630.53,954.17h-15.67l-25.09-18.43v18.43h-9.82v-41.89h9.82v17.46l23.22-17.46h14.13l-27.76,19.73,31.17,22.16Z"/>
            <path d="m706.12,944.27c0,3.89-.76,6.52-2.27,7.88-1.51,1.35-4.25,2.03-8.2,2.03h-25.9c-4.27,0-7.09-.76-8.44-2.27-1.35-1.52-2.03-4.44-2.03-8.77l8.61-1.79v4.95h29.63v-9.58h-26.14c-3.95,0-6.67-.68-8.16-2.03-1.49-1.35-2.23-3.98-2.23-7.88v-4.63c0-3.9.75-6.52,2.23-7.88,1.49-1.35,4.21-2.03,8.16-2.03h23.79c4.01,0,6.74.69,8.21,2.07,1.46,1.38,2.19,4.05,2.19,8l-8.6,2.03v-4.79h-27.45v9.01h26.14c3.95,0,6.69.68,8.2,2.03,1.51,1.35,2.27,3.98,2.27,7.88v5.76Z"/>
            <path d="m753.62,951.41c0,1.25-.19,2.02-.57,2.32-.38.3-1.19.45-2.43.45h-7.55c-1.35,0-2.03-.92-2.03-2.76v-6.09c0-1.24.18-2.02.57-2.31.38-.3,1.19-.45,2.43-.45h7.55c1.35,0,2.03.92,2.03,2.76v6.09Zm0-39.13l-3,24.84h-6.5l-3-24.84h12.5Z"/>
          </g>
        </g>
        <g>
          <path d="m534.95,578.39c-39.6-17.5-237.15-113.25-237.15-279.67V62.58l243.91-41.42,243.92,41.42v236.13c0,166.58-197.56,262.2-237.16,279.68l-6.76,2.98-6.76-2.99Z"/>
          <path class="cls-4" d="m541.72,563.09c-30.49-13.48-227.19-106.62-227.19-264.38V76.71l227.19-38.58,227.19,38.58v222c0,157.94-196.7,250.92-227.19,264.38Z"/>
          <path class="cls-8" d="m541.73,516.83c-50.52-25.31-185.39-103.59-185.39-218.12V112.02l185.38-31.48,185.38,31.48v186.69c0,114.64-134.85,192.85-185.37,218.12Z"/>
          <g>
            <path d="m663.97,197.29c-21.54-9.72-44.35-16.86-67.81-21.23v-66.18l19.84-10.03.39-.2V4.68h-149.36v94.97l20.19,10.21v66.21c-23.45,4.37-46.25,11.51-67.76,21.22l-9.35,4.22v85.61l22.43-10.13c4.69-2.11,9.67-4.16,15.62-6.4v291.55l93.55,130.84,64.32-90.01v.02s28.95-40.47,28.95-40.47l.28-.25v-115.62s0,0,0,0v-176.06c5.97,2.25,10.96,4.3,15.62,6.4l22.44,10.13v-85.61l-9.35-4.22Z"/>
            <g>
              <g>
                <polygon class="cls-6" points="541.7 211.77 541.7 665.66 464.04 557.03 464.04 230.36 541.7 211.77"/>
                <polygon class="cls-7" points="619.35 230.36 619.35 557.03 541.7 665.66 541.7 211.77 619.35 230.36"/>
              </g>
              <rect class="cls-3" x="503.13" y="80.58" width="77.14" height="123.15"/>
              <polygon class="cls-11" points="580.26 85.92 580.26 113.81 541.69 133.31 503.13 113.81 503.13 85.92 580.26 85.92"/>
              <g class="cls-1">
                <path class="cls-5" d="m541.71,515.9v-112.01c-25.89-25.89-51.77-51.77-77.66-77.66v111.83c25.89,25.94,51.78,51.88,77.66,77.83Z"/>
                <path class="cls-5" d="m541.71,331.2v-33.1c-23.21-23.22-46.41-46.46-69.61-69.69l-8.04,1.92v23.21l77.66,77.66Z"/>
                <path class="cls-5" d="m619.37,408.86v-32.91c-25.86-25.97-51.74-51.92-77.66-77.84v33.1l77.66,77.66Z"/>
                <path class="cls-5" d="m604.08,578.42l15.29-21.38v-75.5l-77.66-77.66v112.01c20.79,20.84,41.57,41.69,62.37,62.52Z"/>
              </g>
              <polygon class="cls-13" points="600.5 89.88 541.71 119.6 482.93 89.88 482.93 20.58 600.5 20.58 600.5 89.88"/>
              <path class="cls-10" d="m580.26,176.6v27.14h-77.14v-27.14c25.57-3.56,51.52-3.56,77.14,0Z"/>
              <path class="cls-9" d="m619.35,230.36v33.97c-25.1-7.64-51.09-11.53-77.66-11.53s-52.56,3.89-77.66,11.53v-33.97l77.66-18.6,77.66,18.6Z"/>
              <path class="cls-12" d="m426.01,211.78c73.56-33.22,157.85-33.22,231.42,0v50.74c-73.56-33.22-157.85-33.22-231.42,0v-50.74Z"/>
            </g>
          </g>
        </g>
      </g>
    </g>
  </g>
</svg>